<svg width="60" height="60" viewBox="0 0 60 60" fill="none" xmlns="http://www.w3.org/2000/svg">
<path fill-rule="evenodd" clip-rule="evenodd" d="M0 5C0 2.23858 2.23858 0 5 0H55C57.7614 0 60 2.23858 60 5V55C60 57.7614 57.7614 60 55 60H5C2.23858 60 0 57.7614 0 55V5ZM3.20031 8.18863C3.20031 5.4272 5.43889 3.18863 8.20031 3.18863H51.7997C54.5611 3.18863 56.7997 5.42721 56.7997 8.18863V51.7997C56.7997 54.5611 54.5611 56.7997 51.7997 56.7997H8.20031C5.43889 56.7997 3.20031 54.5611 3.20031 51.7997V8.18863Z" fill="#1B996B"/>
<path fill-rule="evenodd" clip-rule="evenodd" d="M15.5461 7.40515H44.6876C45.8556 7.40515 46.8017 8.35123 46.8017 9.51923V47.0937C46.8017 48.2617 45.8556 49.2078 44.6876 49.2078H15.5461C14.3897 49.2078 13.4437 48.2617 13.4437 47.0937V9.51923C13.4437 8.35123 14.3897 7.40515 15.5461 7.40515ZM15.8147 9.64771H44.4306V46.9652H15.8147V9.64771Z" fill="#1B996B" stroke="#1B996B" stroke-width="0.0762"/>
<path d="M31.2205 29.819H21.3393C20.9006 29.819 20.545 30.2896 20.545 30.8702C20.545 31.4507 20.9006 31.9214 21.3393 31.9214H31.2205C31.6592 31.9214 32.0148 31.4507 32.0148 30.8702C32.0148 30.2896 31.6592 29.819 31.2205 29.819Z" fill="#1B996B"/>
<path d="M37.9015 25.6025H21.8415C21.1255 25.6025 20.545 26.0732 20.545 26.6537C20.545 27.2343 21.1255 27.7049 21.8415 27.7049H37.9015C38.6175 27.7049 39.198 27.2343 39.198 26.6537C39.198 26.0732 38.6175 25.6025 37.9015 25.6025Z" fill="#1B996B"/>
<path d="M36.4532 46.2061C39.3818 46.2061 41.7559 43.832 41.7559 40.9034C41.7559 37.9748 39.3818 35.6007 36.4532 35.6007C33.5246 35.6007 31.1505 37.9748 31.1505 40.9034C31.1505 43.832 33.5246 46.2061 36.4532 46.2061Z" fill="#1B996B"/>
<path fill-rule="evenodd" clip-rule="evenodd" d="M33.8485 44.9912H39.3498V49.5698V55.4448L36.605 49.5698L33.8602 55.4448V49.5698H33.8485V44.9912Z" fill="#1B996B"/>
<path d="M36.4532 44.3606C38.3626 44.3606 39.9105 42.8127 39.9105 40.9033C39.9105 38.9939 38.3626 37.446 36.4532 37.446C34.5438 37.446 32.9959 38.9939 32.9959 40.9033C32.9959 42.8127 34.5438 44.3606 36.4532 44.3606Z" fill="#FEFEFE"/>
<path d="M37.9015 17.1697H21.8415C21.1255 17.1697 20.545 17.6403 20.545 18.2209C20.545 18.8014 21.1255 19.2721 21.8415 19.2721H37.9015C38.6175 19.2721 39.198 18.8014 39.198 18.2209C39.198 17.6403 38.6175 17.1697 37.9015 17.1697Z" fill="#1B996B"/>
<path d="M37.9014 21.3861H21.8415C21.1254 21.3861 20.545 21.8567 20.545 22.4373C20.545 23.0179 21.1254 23.4885 21.8415 23.4885H37.9014C38.6174 23.4885 39.1979 23.0179 39.1979 22.4373C39.1979 21.8567 38.6174 21.3861 37.9014 21.3861Z" fill="#1B996B"/>
</svg>
