<svg width="60" height="60" viewBox="0 0 60 60" fill="none" xmlns="http://www.w3.org/2000/svg">
<path fill-rule="evenodd" clip-rule="evenodd" d="M0 5C0 2.23858 2.23858 0 5 0H55C57.7614 0 60 2.23858 60 5V55C60 57.7614 57.7614 60 55 60H5C2.23858 60 0 57.7614 0 55V5ZM3.18863 8.20031C3.18863 5.43889 5.42721 3.20031 8.18863 3.20031H51.7997C54.5611 3.20031 56.7997 5.43889 56.7997 8.20031V51.7997C56.7997 54.5611 54.5611 56.7997 51.7997 56.7997H8.18863C5.4272 56.7997 3.18863 54.5611 3.18863 51.7997V8.20031Z" fill="#1B996B"/>
<path fill-rule="evenodd" clip-rule="evenodd" d="M29.9941 7.52185C42.41 7.52185 52.4781 17.5783 52.4781 30.0058C52.4781 42.4216 42.41 52.4897 29.9941 52.4897C17.5783 52.4897 7.51021 42.4216 7.51021 30.0058C7.51021 17.5783 17.5783 7.52185 29.9941 7.52185ZM29.9941 11.0258C40.4828 11.0258 48.9741 19.5172 48.9741 30.0058C48.9741 40.4827 40.4828 48.9857 29.9941 48.9857C19.5172 48.9857 11.0142 40.4827 11.0142 30.0058C11.0142 19.5172 19.5172 11.0258 29.9941 11.0258Z" fill="#1B996B"/>
<path d="M31.3023 11.8902C31.3023 10.7226 30.7166 9.77612 29.9942 9.77612C29.2717 9.77612 28.686 10.7226 28.686 11.8902V12.6728C28.686 13.8403 29.2717 14.7868 29.9942 14.7868C30.7166 14.7868 31.3023 13.8403 31.3023 12.6728V11.8902Z" fill="#1B996B"/>
<path d="M11.5445 28.7257C10.5465 28.7257 9.73756 29.3103 9.73756 30.0315C9.73756 30.7527 10.5465 31.3373 11.5445 31.3373L12.9436 31.3373C13.9415 31.3373 14.7505 30.7527 14.7505 30.0315C14.7505 29.3103 13.9415 28.7257 12.9436 28.7257L11.5445 28.7257Z" fill="#1B996B"/>
<path d="M31.3023 47.082C31.3023 46.0821 30.7166 45.2716 29.9942 45.2716C29.2717 45.2716 28.686 46.0821 28.686 47.082V48.4719C28.686 49.4718 29.2717 50.2823 29.9942 50.2823C30.7166 50.2823 31.3023 49.4718 31.3023 48.4719V47.082Z" fill="#1B996B"/>
<path d="M48.1443 31.3373C49.309 31.3373 50.2531 30.7526 50.2531 30.0315C50.2531 29.3103 49.309 28.7257 48.1443 28.7257L47.349 28.7257C46.1843 28.7257 45.2402 29.3103 45.2402 30.0315C45.2402 30.7526 46.1843 31.3373 47.349 31.3373L48.1443 31.3373Z" fill="#1B996B"/>
<path d="M31.2907 23.0445C31.2907 19.6837 30.6475 16.9592 29.854 16.9592C29.0606 16.9592 28.4174 19.6837 28.4174 23.0445V25.3338C28.4174 28.6946 29.0606 31.419 29.854 31.419C30.6475 31.419 31.2907 28.6946 31.2907 25.3338V23.0445Z" fill="#1B996B"/>
<path d="M33.3684 28.7314C30.6484 28.7314 28.4434 29.3746 28.4434 30.1681C28.4434 30.9615 30.6484 31.6047 33.3684 31.6047L37.1819 31.6047C39.9019 31.6047 42.1069 30.9615 42.1069 30.1681C42.1069 29.3746 39.9019 28.7314 37.1819 28.7314L33.3684 28.7314Z" fill="#1B996B"/>
</svg>
