<svg width="60" height="60" viewBox="0 0 60 60" fill="none" xmlns="http://www.w3.org/2000/svg">
<path fill-rule="evenodd" clip-rule="evenodd" d="M0 5C0 2.23858 2.23858 0 5 0H55C57.7614 0 60 2.23858 60 5V55C60 57.7614 57.7614 60 55 60H5C2.23858 60 0 57.7614 0 55V5ZM3.20031 8.20031C3.20031 5.43889 5.43889 3.20031 8.20031 3.20031H51.8114C54.5728 3.20031 56.8114 5.43889 56.8114 8.20031V51.7997C56.8114 54.5611 54.5728 56.7997 51.8114 56.7997H8.20031C5.43888 56.7997 3.20031 54.5611 3.20031 51.7997V8.20031Z" fill="#1B996B"/>
<path fill-rule="evenodd" clip-rule="evenodd" d="M30.0058 7.44019C42.4684 7.44019 52.5715 17.5434 52.5715 30.0059C52.5715 42.4684 42.4684 52.5716 30.0058 52.5716C17.5433 52.5716 7.44014 42.4684 7.44014 30.0059C7.44014 17.5434 17.5433 7.44019 30.0058 7.44019ZM30.0058 10.8391C40.5879 10.8391 49.1727 19.4122 49.1727 30.0059C49.1727 40.5879 40.5879 49.161 30.0058 49.161C19.4238 49.161 10.839 40.5879 10.839 30.0059C10.839 19.4122 19.4238 10.8391 30.0058 10.8391Z" fill="#1B996B" stroke="#FEFEFE" stroke-width="0.0762"/>
<path fill-rule="evenodd" clip-rule="evenodd" d="M30.0058 9.40234C38.1935 9.40234 44.8394 18.6178 44.8394 30.0058C44.8394 41.3821 38.1935 50.5976 30.0058 50.5976C21.8065 50.5976 15.1723 41.3821 15.1723 30.0058C15.1723 18.6178 21.8065 9.40234 30.0058 9.40234ZM30.0058 10.839C37.1306 10.839 42.9122 19.4238 42.9122 30.0058C42.9122 40.5762 37.1306 49.161 30.0058 49.161C22.8694 49.161 17.0995 40.5762 17.0995 30.0058C17.0995 19.4238 22.8694 10.839 30.0058 10.839Z" fill="#1B996B"/>
<path fill-rule="evenodd" clip-rule="evenodd" d="M48.3317 19.5405C48.3317 22.262 40.1207 24.4695 30.0058 24.4695C19.8793 24.4695 11.68 22.262 11.68 19.5405H13.8641C13.8641 21.2925 21.094 22.7292 30.0058 22.7292C38.9177 22.7292 46.1475 21.2925 46.1475 19.5405H48.3317Z" fill="#1B996B"/>
<path fill-rule="evenodd" clip-rule="evenodd" d="M11.68 40.4711C11.68 37.7496 19.8793 35.5421 30.0058 35.5421C40.1207 35.5421 48.3317 37.7496 48.3317 40.4711H46.1475C46.1475 38.7074 38.9177 37.2824 30.0058 37.2824C21.094 37.2824 13.8641 38.7074 13.8641 40.4711H11.68Z" fill="#1B996B"/>
<path d="M30.8468 10.1265H29.1766V49.8033H30.8468V10.1265Z" fill="#1B996B"/>
</svg>
