<svg width="60" height="60" viewBox="0 0 60 60" fill="none" xmlns="http://www.w3.org/2000/svg">
<path fill-rule="evenodd" clip-rule="evenodd" d="M0 5C0 2.23858 2.23858 0 5 0H55C57.7614 0 60 2.23858 60 5V55C60 57.7614 57.7614 60 55 60H5C2.23858 60 0 57.7614 0 55V5ZM3.20031 8.20031C3.20031 5.43889 5.43889 3.20031 8.20031 3.20031H51.7997C54.5611 3.20031 56.7997 5.43889 56.7997 8.20031V51.7997C56.7997 54.5611 54.5611 56.7997 51.7997 56.7997H8.20031C5.43889 56.7997 3.20031 54.5611 3.20031 51.7997V8.20031Z" fill="#1B996B"/>
<path fill-rule="evenodd" clip-rule="evenodd" d="M52.3862 33.1828C52.3862 33.2062 52.3862 33.2179 52.3862 33.2295C52.3862 33.323 52.3862 33.4281 52.3862 33.5215C52.3862 33.6033 52.3862 33.6851 52.3746 33.7668V33.8135C52.1668 38.0417 49.8927 41.8493 46.3372 44.6642C46.1525 44.8161 45.9562 44.9562 45.7715 45.0964C46.4064 48.3551 44.6979 51.497 42.47 51.9642C40.2651 52.4314 38.4758 51.0181 37.3791 48.834C35.9361 49.161 34.4354 49.3713 32.8885 49.453C32.8539 49.453 32.8193 49.453 32.7846 49.4647C32.6807 49.4647 32.5768 49.4647 32.4729 49.4764C32.3575 49.4764 32.2305 49.4764 32.1151 49.488C32.0805 49.488 32.0343 49.488 31.9996 49.488C31.838 49.488 31.6764 49.488 31.5148 49.488H31.5033C29.4254 49.488 27.4167 49.2544 25.5235 48.8106C25.639 48.834 25.7659 48.869 25.8814 48.8924C24.7847 51.0765 22.7761 52.3847 20.8021 51.9642C18.3663 51.4503 16.9118 48.4719 17.5005 45.2716C15.919 44.1503 14.5568 42.8538 13.4717 41.4055H13.437C12.8599 40.623 12.3519 39.8054 11.9363 38.9527H9.32742C7.99987 38.9527 6.9032 37.8548 6.9032 36.4999V29.5971C6.9032 28.2422 7.99987 27.1443 9.32742 27.1443H12.0518C13.16 24.9601 14.8569 23.0096 16.981 21.4094C16.4731 18.8749 17.4312 15.2891 18.551 14.7168C19.6592 14.1445 22.8453 15.4993 24.5077 17.7769C27.0127 17.0761 28.9636 16.9009 31.5148 16.9009C43.0356 16.9009 52.3862 24.1892 52.3862 33.1828ZM23.5264 48.25L23.4918 48.2383C23.9305 47.6893 24.3229 46.8484 24.6693 45.6337V45.622C26.8049 46.2994 29.1368 46.6732 31.5725 46.6732C34.066 46.6732 36.444 46.2877 38.5912 45.5869C38.6028 45.6103 38.6028 45.6337 38.6143 45.657C38.9375 46.79 39.3069 47.5959 39.6994 48.1449C40.2882 48.8573 40.9462 49.3012 41.8697 49.1026C44.1669 48.6237 43.6244 45.0847 43.3704 43.4261C43.3704 43.3911 43.3588 43.3677 43.3473 43.3327C47.1106 40.8449 49.4887 37.189 49.4887 33.1127C49.4887 25.6142 41.4772 19.5406 31.5725 19.5406C28.8251 19.5406 26.2277 20.0078 23.8958 20.8488C22.8338 18.7814 20.3865 17.1929 19.7747 17.5317C19.1628 17.8587 18.7126 21.1057 19.4283 23.1497C16.854 24.9368 14.9839 27.3078 14.1412 29.9708H10.528C9.91616 29.9708 9.39668 30.4847 9.39668 31.1155V31.1855V35.1684V35.2618C9.39668 35.8926 9.91616 36.4065 10.528 36.4065H14.1989C15.1109 39.1746 17.1426 41.6041 19.9132 43.4028C19.6246 44.7226 19.5553 45.7738 19.6477 46.6031H19.6361C19.7169 47.8529 20.398 48.8807 21.4023 49.0909C22.1642 49.2544 22.9377 48.9157 23.5264 48.25Z" fill="#1B996B"/>
<path d="M19.0012 32.1432C20.0213 32.1432 20.8482 31.3065 20.8482 30.2744C20.8482 29.2423 20.0213 28.4056 19.0012 28.4056C17.9811 28.4056 17.1542 29.2423 17.1542 30.2744C17.1542 31.3065 17.9811 32.1432 19.0012 32.1432Z" fill="#1B996B"/>
<path fill-rule="evenodd" clip-rule="evenodd" d="M32.1497 7.11292C35.9015 7.11292 38.9375 10.1847 38.9375 13.9807C38.9375 16.1766 37.9217 18.1271 36.3517 19.3769L34.2738 19.0148C34.2738 19.0148 29.5177 19.1433 27.6129 19.0966C26.2277 17.8468 25.3503 16.0131 25.3503 13.9807C25.3503 10.1847 28.3979 7.11292 32.1497 7.11292ZM32.1843 9.20363C34.7355 9.20363 36.8019 11.2943 36.8019 13.8756C36.8019 16.4452 34.7355 18.5359 32.1843 18.5359C29.6447 18.5359 27.5783 16.4452 27.5783 13.8756C27.5783 11.2943 29.6447 9.20363 32.1843 9.20363Z" fill="#1B996B"/>
<path d="M32.9462 13.3034C32.9462 12.11 32.587 11.1426 32.1439 11.1426C31.7008 11.1426 31.3416 12.11 31.3416 13.3034V15.6043C31.3416 16.7977 31.7008 17.7651 32.1439 17.7651C32.587 17.7651 32.9462 16.7977 32.9462 15.6043V13.3034Z" fill="#1B996B"/>
<path d="M32.7121 12.1894C33.0316 11.8009 33.0143 11.2533 32.6734 10.9663C32.3326 10.6793 31.7972 10.7616 31.4777 11.1501L30.8662 11.8936C30.5467 12.2821 30.5641 12.8297 30.9049 13.1167C31.2458 13.4037 31.7812 13.3214 32.1007 12.9329L32.7121 12.1894Z" fill="#1B996B"/>
</svg>
