<svg width="45" height="60" viewBox="0 0 45 60" fill="none" xmlns="http://www.w3.org/2000/svg">
<path d="M43.7659 19.7879C44.8454 18.7191 45.2497 17.2243 44.8475 15.7891C44.4452 14.3539 43.3134 13.2527 41.8199 12.8431C40.4665 12.4721 39.6731 11.1581 40.0138 9.85182C40.3897 8.41018 39.9583 6.92225 38.8596 5.87167C37.7608 4.82108 36.2048 4.40859 34.6972 4.76788C33.3306 5.09366 31.957 4.33511 31.569 3.04089C31.1407 1.61261 29.9889 0.530389 28.4881 0.145898C26.9871 -0.238828 25.4238 0.148007 24.3061 1.18008C23.293 2.11523 21.7066 2.11535 20.6939 1.18008C19.5762 0.14789 18.0128 -0.238711 16.512 0.145898C15.0112 0.530507 13.8595 1.61273 13.4313 3.04089C13.0433 4.33499 11.6691 5.09378 10.3029 4.76788C8.79566 4.4087 7.23935 4.82108 6.14053 5.87167C5.04183 6.92225 4.61032 8.41018 4.98619 9.85182C5.32689 11.1581 4.5336 12.472 3.18012 12.8431C1.68643 13.2526 0.554645 14.3539 0.152545 15.789C-0.249677 17.2242 0.154751 18.719 1.23408 19.7878C2.21219 20.7562 2.21219 22.2734 1.23408 23.2419C0.154628 24.3106 -0.249677 25.8055 0.152545 27.2407C0.554645 28.6757 1.68655 29.7771 3.18012 30.1865C4.53348 30.5575 5.32689 31.8715 4.98619 33.1778C4.61032 34.6194 5.04171 36.1074 6.14053 37.158C6.9147 37.8981 7.91597 38.3199 8.96723 38.3799L6.19715 43.1924C5.95939 43.6056 6.11688 44.1248 6.54888 44.3521C6.981 44.5794 7.52392 44.4289 7.76179 44.0158L11.113 38.1936C11.1293 38.1946 11.1454 38.1967 11.1617 38.198C11.2761 38.2075 11.3893 38.2232 11.4998 38.2468C11.5032 38.2475 11.5067 38.2479 11.5101 38.2486C11.5643 38.2604 11.6175 38.2747 11.6704 38.2895C11.6856 38.2939 11.7008 38.2979 11.7157 38.3024C11.7682 38.3182 11.8199 38.3356 11.871 38.3545C11.883 38.3589 11.8949 38.3636 11.9068 38.3682C12.1377 38.4575 12.3535 38.5777 12.5479 38.7251C12.5541 38.7298 12.5605 38.7344 12.5666 38.7392C12.6111 38.7735 12.6541 38.8095 12.6962 38.8466C12.706 38.8553 12.7155 38.8642 12.7252 38.873C12.766 38.9102 12.8061 38.9482 12.8443 38.988C12.8494 38.9932 12.854 38.9989 12.8591 39.0041C12.9298 39.0788 12.9951 39.1584 13.0562 39.2414C13.069 39.2589 13.0826 39.2755 13.095 39.2934C13.1169 39.3248 13.1369 39.3577 13.1574 39.3902C13.1772 39.4218 13.1969 39.4536 13.2153 39.4863C13.2319 39.5154 13.2477 39.5451 13.263 39.575C13.2841 39.6162 13.3039 39.6583 13.3228 39.7009C13.3337 39.7256 13.3451 39.7499 13.3553 39.775C13.3833 39.8446 13.4093 39.9155 13.4313 39.9885C13.8595 41.4168 15.0112 42.499 16.512 42.8835C16.5128 42.8836 16.5134 42.8837 16.5141 42.884C16.6004 42.906 16.687 42.9249 16.7737 42.9419C16.8025 42.9475 16.8311 42.9521 16.8599 42.9572C16.9196 42.9678 16.9793 42.9774 17.039 42.9856C17.0712 42.9899 17.1033 42.994 17.1355 42.9978C17.195 43.0047 17.2544 43.0101 17.3139 43.0146C17.3429 43.0169 17.372 43.0196 17.401 43.0212C17.4875 43.0261 17.5741 43.0293 17.6602 43.0293C17.6608 43.0293 17.6616 43.0293 17.6622 43.0293C17.7356 43.0293 17.8088 43.0273 17.8818 43.0238C17.9018 43.0228 17.9216 43.0209 17.9416 43.0197C17.9944 43.0164 18.0472 43.0129 18.0998 43.0078C18.1261 43.0053 18.152 43.0018 18.1781 42.9988C18.2243 42.9936 18.2704 42.9882 18.3164 42.9815C18.3448 42.9774 18.373 42.9723 18.4012 42.9677C18.4446 42.9605 18.4878 42.9531 18.5308 42.9447C18.5601 42.9389 18.5893 42.9326 18.6185 42.9263C18.6601 42.9173 18.7017 42.9079 18.7431 42.8977C18.7726 42.8904 18.8022 42.8827 18.8316 42.8748C18.8723 42.8639 18.9127 42.8525 18.9529 42.8404C18.9823 42.8316 19.0117 42.8226 19.041 42.8132C19.081 42.8003 19.1207 42.7867 19.1603 42.7728C19.1891 42.7626 19.218 42.7525 19.2466 42.7417C19.2864 42.7267 19.3257 42.7108 19.3652 42.6947C19.3929 42.6834 19.4207 42.6723 19.4482 42.6604C19.4886 42.6428 19.5286 42.6242 19.5685 42.6054C19.5941 42.5934 19.62 42.5819 19.6455 42.5693C19.6887 42.548 19.7314 42.5253 19.7739 42.5025C19.7954 42.4911 19.8172 42.4803 19.8385 42.4684C19.9004 42.4341 19.9614 42.3984 20.0217 42.3609C20.0233 42.3599 20.0248 42.3591 20.0264 42.3582L21.4808 44.8851L14.2833 57.3899L12.072 50.4707C11.8887 49.8969 11.2709 49.5715 10.6662 49.7309L3.36983 51.6463L5.05862 48.7124C5.2965 48.2993 5.13902 47.7801 4.70689 47.5527C4.27477 47.3251 3.73173 47.4758 3.4941 47.889L1.14499 51.97C0.895712 52.4032 0.930885 52.9211 1.2347 53.2895C1.52245 53.6385 1.98448 53.781 2.43977 53.6616L10.5444 51.5339L13.0005 59.2195C13.1385 59.6514 13.5114 59.9482 13.9738 59.994C14.0141 59.998 14.0544 60 14.0945 60C14.5391 60 14.9589 59.7579 15.1877 59.3605L22.5 46.6561L29.8125 59.3605C30.0412 59.7579 30.4611 59.9999 30.9056 59.9999C30.9457 59.9999 30.9861 59.9979 31.0266 59.9939C31.489 59.9481 31.8619 59.6513 31.9998 59.2194L34.4559 51.5338L42.5606 53.6615C43.0159 53.7808 43.4778 53.6384 43.7657 53.2894C44.0695 52.9211 44.1047 52.4031 43.8553 51.97L36.0329 38.3801C37.0842 38.3202 38.0855 37.8984 38.8596 37.1581C39.9583 36.1075 40.3898 34.6196 40.0138 33.1779C39.6731 31.8717 40.4664 30.5578 41.8198 30.1866C43.3136 29.7772 44.4455 28.6758 44.8475 27.2407C45.2497 25.8056 44.8452 24.3106 43.7658 23.242C42.7878 22.2736 42.7878 20.7563 43.7659 19.7879ZM41.6304 51.6465L34.3342 49.7311C33.7285 49.5722 33.1112 49.8972 32.9281 50.4709L30.7169 57.3901L21.484 41.3493C21.4845 41.3491 21.485 41.3488 21.4855 41.3487C21.5404 41.3264 21.596 41.3063 21.652 41.2878C21.6582 41.2858 21.6643 41.2838 21.6703 41.2818C22.2061 41.1093 22.7869 41.1094 23.3206 41.2789C23.3232 41.2797 23.3258 41.2805 23.3282 41.2813C23.4821 41.3307 23.6314 41.3955 23.7752 41.4729C23.8043 41.4888 23.8336 41.5041 23.8623 41.5211C23.8923 41.5388 23.9219 41.5578 23.9513 41.5768C23.9894 41.6015 24.0271 41.6273 24.0643 41.6541C24.0868 41.6704 24.1095 41.6864 24.1316 41.7034C24.1911 41.7496 24.2498 41.7977 24.3061 41.8496C24.4817 42.0118 24.6693 42.156 24.8649 42.2857C25.9145 42.9822 27.2227 43.208 28.4881 42.8837C28.5819 42.8597 28.6744 42.833 28.7653 42.8036C30.1301 42.3626 31.1674 41.3277 31.569 39.9888C31.591 39.9153 31.6171 39.8441 31.6453 39.7743C31.6551 39.7502 31.666 39.7267 31.6766 39.703C31.6958 39.6593 31.7162 39.6163 31.7377 39.5743C31.7528 39.545 31.7683 39.5158 31.7846 39.4872C31.8033 39.4539 31.8233 39.4217 31.8435 39.3896C31.8637 39.3573 31.8836 39.3249 31.9052 39.2937C31.9179 39.2754 31.9319 39.2582 31.9451 39.2403C32.006 39.1577 32.0711 39.0786 32.1414 39.0043C32.1463 38.9991 32.151 38.9935 32.1559 38.9883C32.1943 38.9485 32.2343 38.9104 32.2753 38.8731C32.2848 38.8645 32.2943 38.8557 32.3039 38.8471C32.3461 38.81 32.3892 38.7739 32.4337 38.7395C32.4399 38.7347 32.4462 38.7303 32.4525 38.7255C32.6467 38.5781 32.8625 38.4579 33.0932 38.3686C33.1053 38.3639 33.1175 38.3591 33.1297 38.3546C33.1806 38.3357 33.2322 38.3185 33.2844 38.3027C33.2998 38.2981 33.3154 38.2939 33.3308 38.2895C33.3834 38.2747 33.4362 38.2606 33.49 38.2489C33.4946 38.2479 33.4992 38.2472 33.5037 38.2463C33.6124 38.2233 33.7236 38.2079 33.8361 38.1984C33.8533 38.197 33.8702 38.1947 33.8873 38.1937L41.6304 51.6465ZM43.1225 26.7987C42.884 27.6495 42.2132 28.3023 41.3276 28.5451C39.0444 29.1711 37.7062 31.3876 38.2809 33.5911C38.5038 34.4458 38.2481 35.3277 37.5967 35.9506C36.9453 36.5734 36.023 36.8179 35.1293 36.6049C33.1491 36.1327 31.1592 37.0122 30.2231 38.6546C30.2231 38.6547 30.223 38.6548 30.2229 38.6549C30.1942 38.7052 30.1665 38.7562 30.1398 38.8079C30.1346 38.8179 30.1296 38.8281 30.1244 38.8382C30.1021 38.8824 30.0802 38.9268 30.0595 38.972C30.0503 38.9918 30.0417 39.0121 30.0329 39.032C30.0164 39.0697 29.9997 39.1072 29.9841 39.1455C29.971 39.1776 29.959 39.2103 29.9466 39.2429C29.936 39.2711 29.9248 39.299 29.9148 39.3275C29.8926 39.3903 29.8716 39.4537 29.8524 39.5179C29.5986 40.3646 28.9158 41.0061 28.0261 41.234C27.9711 41.248 27.916 41.2603 27.8608 41.271C27.0227 41.4319 26.1688 41.1951 25.5469 40.621C25.4957 40.5737 25.4435 40.5279 25.3906 40.4834C25.3582 40.4562 25.325 40.4304 25.2919 40.4043C25.272 40.3886 25.2527 40.3724 25.2327 40.3571C25.1834 40.3193 25.1334 40.2832 25.0829 40.2479C25.0799 40.2457 25.0769 40.2435 25.074 40.2414C24.3062 39.706 23.4035 39.4376 22.5004 39.4376C21.519 39.4376 20.538 39.7547 19.7304 40.387C19.7297 40.3875 19.7288 40.388 19.7281 40.3886C19.7228 40.3927 19.7181 40.3968 19.713 40.4009C19.6732 40.4324 19.6333 40.4642 19.5944 40.4972C19.5458 40.5381 19.499 40.5791 19.4537 40.6209C18.8739 41.1563 18.0919 41.3986 17.3095 41.2982C17.1977 41.2838 17.0859 41.2625 16.9748 41.234C16.085 41.0061 15.4024 40.3645 15.1485 39.5178C15.1291 39.4533 15.1082 39.3898 15.0859 39.3269C15.0762 39.2993 15.0654 39.2725 15.0551 39.2453C15.0424 39.2117 15.03 39.1779 15.0164 39.1448C15.0011 39.1073 14.9848 39.0704 14.9685 39.0334C14.9593 39.0127 14.9503 38.9917 14.9408 38.9711C14.9202 38.9263 14.8984 38.8822 14.8763 38.8383C14.871 38.828 14.8659 38.8176 14.8606 38.8073C13.9636 37.0669 11.9128 36.1179 9.87119 36.6043C8.97728 36.8175 8.05507 36.5727 7.40381 35.95C6.75244 35.3273 6.49667 34.4452 6.71959 33.5907C7.29425 31.387 5.95596 29.1705 3.67278 28.5446C2.78733 28.3018 2.11647 27.649 1.8781 26.7983C1.63974 25.9475 1.87933 25.0613 2.51931 24.4278C4.16925 22.7942 4.16925 20.2347 2.51931 18.6011C1.87945 17.9676 1.63974 17.0815 1.8781 16.2307C2.11647 15.38 2.78745 14.7272 3.67278 14.4843C5.95596 13.8584 7.29425 11.6419 6.71959 9.43826C6.49667 8.58362 6.75244 7.70167 7.40381 7.07893C8.05507 6.45608 8.97765 6.21163 9.87119 6.42468C12.1759 6.97405 14.4937 5.69448 15.1484 3.51128C15.4023 2.6646 16.0849 2.02312 16.9747 1.79519C17.8646 1.56726 18.7912 1.79648 19.4537 2.40832C21.1621 3.98601 23.8387 3.98601 25.5472 2.40832C26.2098 1.79648 27.1368 1.56726 28.0263 1.79519C28.9159 2.02312 29.5987 2.66472 29.8525 3.51128C30.5072 5.6946 32.8255 6.97452 35.1297 6.42468C36.0228 6.21139 36.9457 6.45608 37.597 7.07893C38.2484 7.70178 38.5042 8.58373 38.2813 9.43826C37.7066 11.6419 39.0448 13.8583 41.328 14.4843C42.2135 14.7272 42.8844 15.3799 43.1229 16.2307C43.3612 17.0815 43.1215 17.9675 42.4817 18.6011C40.8316 20.2348 40.8317 22.7942 42.4818 24.4278C43.1212 25.0619 43.3609 25.948 43.1225 26.7987Z" fill="#1B996B"/>
<path d="M22.4999 4.83167C12.8794 4.83167 5.05249 12.3158 5.05249 21.515C5.05249 30.7142 12.8794 38.1984 22.4999 38.1984C32.1204 38.1984 39.9471 30.7142 39.9471 21.515C39.9471 12.3158 32.1204 4.83167 22.4999 4.83167ZM22.4999 36.4906C13.8641 36.4906 6.83847 29.7726 6.83847 21.515C6.83847 13.2574 13.8641 6.53932 22.4999 6.53932C31.1355 6.53932 38.1613 13.2573 38.1613 21.5149C38.1613 29.7725 31.1355 36.4906 22.4999 36.4906Z" fill="#1B996B"/>
<path d="M34.3119 18.9754L31.197 16.1852C30.8371 15.8629 30.272 15.8807 29.935 16.2247C29.5978 16.5689 29.6163 17.1093 29.9761 17.4316L33.0911 20.2218C33.2216 20.3388 33.2412 20.4794 33.2412 20.5528C33.2412 20.6262 33.2217 20.7669 33.0911 20.8839C32.909 21.0469 32.6243 21.0469 32.4424 20.8839L23.082 12.4992C22.7377 12.1911 22.2024 12.1916 21.8592 12.5009L12.5589 20.8784C12.3764 21.0428 12.0905 21.0427 11.9081 20.8784C11.7784 20.7615 11.759 20.6214 11.759 20.5481C11.759 20.475 11.7784 20.3348 11.9081 20.2179L22.1434 10.9982C22.3254 10.8343 22.6109 10.834 22.793 10.9974L25.8955 13.7763C26.2557 14.0988 26.8206 14.081 27.1578 13.737C27.4949 13.3928 27.4765 12.8524 27.1166 12.53L24.0141 9.75119C23.1451 8.9726 21.7853 8.97447 20.9187 9.75529L10.6835 18.9749C10.232 19.3816 9.97302 19.955 9.97302 20.5481C9.97302 21.1413 10.232 21.7147 10.6835 22.1214C11.5022 22.8589 12.7578 22.9011 13.6273 22.2489L13.6391 30.2947C13.6402 31.0519 14.2846 31.6671 15.0763 31.6671C15.0769 31.6671 15.0776 31.6671 15.0782 31.6671L29.9231 31.6473C30.7155 31.6462 31.3593 31.029 31.3583 30.271L31.3465 22.2321C31.7592 22.5512 32.2623 22.7125 32.7665 22.7125C33.3225 22.7125 33.8786 22.5183 34.3117 22.1303C34.7663 21.7233 35.027 21.1482 35.027 20.5528C35.027 19.9574 34.7663 19.3825 34.3119 18.9754ZM20.9988 29.9515L20.9873 22.0721L23.9864 22.0682L23.9978 29.9475L20.9988 29.9515ZM25.7838 29.9451L25.7716 21.5443C25.7712 21.2275 25.6417 20.9297 25.4071 20.706C25.1729 20.4826 24.8618 20.3597 24.5312 20.3597C24.5307 20.3597 24.53 20.3597 24.5294 20.3597L20.4392 20.3651C20.108 20.3655 19.7967 20.4894 19.5627 20.7137C19.3287 20.9381 19.2001 21.2361 19.2006 21.5529L19.2128 29.9538L15.4247 29.9588L15.4111 20.6553L22.4732 14.294L29.5585 20.6407L29.5721 29.9399L25.7838 29.9451Z" fill="#1B996B"/>
</svg>
