<svg width="60" height="60" viewBox="0 0 60 60" fill="none" xmlns="http://www.w3.org/2000/svg">
<path fill-rule="evenodd" clip-rule="evenodd" d="M0 5C0 2.23858 2.23858 0 5 0H55C57.7614 0 60 2.23858 60 5V55C60 57.7614 57.7614 60 55 60H5C2.23858 60 0 57.7614 0 55V5ZM3.20031 8.18863C3.20031 5.4272 5.43889 3.18863 8.20031 3.18863H51.7997C54.5611 3.18863 56.7997 5.42721 56.7997 8.18863V51.7997C56.7997 54.5611 54.5611 56.7997 51.7997 56.7997H8.20031C5.43889 56.7997 3.20031 54.5611 3.20031 51.7997V8.18863Z" fill="#1B996B"/>
<path fill-rule="evenodd" clip-rule="evenodd" d="M16.3403 23.2665H18.9099V16.4454C18.9099 12.2523 22.846 8.83008 27.6465 8.83008H32.3418C37.154 8.83008 41.0785 12.2523 41.0785 16.4454V23.2665H43.6597C45.5285 23.2665 47.0586 24.598 47.0586 26.2215V48.2033C47.0586 49.8268 45.5285 51.1583 43.6597 51.1583H16.3403C14.4715 51.1583 12.9414 49.8268 12.9414 48.2033V26.2215C12.9414 24.598 14.4715 23.2665 16.3403 23.2665ZM17.1112 26.6771H42.8772H43.2976V47.7477H42.8772H17.1112H16.7024V26.6771H17.1112ZM23.687 23.2665H36.313V16.9477C36.313 14.927 34.4092 13.2685 32.0732 13.2685H27.9268C25.5908 13.2685 23.687 14.927 23.687 16.9477V23.2665Z" fill="#1B996B" stroke="#FEFEFE" stroke-width="0.0762"/>
<path fill-rule="evenodd" clip-rule="evenodd" d="M30.0876 30.4849C31.5126 30.4849 32.6689 31.6529 32.6689 33.0778C32.6689 34.1057 32.0732 34.9817 31.2206 35.4021V40.2143C31.2206 40.8333 30.7067 41.3356 30.0876 41.3356C29.4686 41.3356 28.9547 40.8333 28.9547 40.2143V35.4021C28.0904 34.9817 27.4947 34.1057 27.4947 33.0778C27.4947 31.6529 28.6627 30.4849 30.0876 30.4849Z" fill="#1B996B"/>
</svg>
