<svg width="60" height="60" viewBox="0 0 60 60" fill="none" xmlns="http://www.w3.org/2000/svg">
<path fill-rule="evenodd" clip-rule="evenodd" d="M0 5C0 2.23858 2.23858 0 5 0H55C57.7614 0 60 2.23858 60 5V55C60 57.7614 57.7614 60 55 60H5C2.23858 60 0 57.7614 0 55V5ZM3.18863 8.20031C3.18863 5.43889 5.42721 3.20031 8.18863 3.20031H51.7997C54.5611 3.20031 56.7997 5.43889 56.7997 8.20031V51.7997C56.7997 54.5611 54.5611 56.7997 51.7997 56.7997H8.18863C5.4272 56.7997 3.18863 54.5611 3.18863 51.7997V8.20031Z" fill="#1B996B"/>
<path fill-rule="evenodd" clip-rule="evenodd" d="M53.2606 45.4117V49.5347C53.2606 51.7305 47.6075 53.5059 40.6229 53.5059C33.65 53.5059 27.9969 51.7305 27.9969 49.5347C27.9969 49.488 27.9969 49.4529 27.9969 49.4179V45.4117C27.9969 45.3883 27.9969 45.3766 27.9969 45.365C27.9969 45.3533 27.9969 45.3416 27.9969 45.3299V45.3182V45.3066V45.2949V45.2832V42.8304C25.3105 42.0946 23.6169 41.02 23.6169 39.8286C23.6169 39.7819 23.6169 39.7469 23.6285 39.7002H23.6169V35.6939C23.6169 34.4909 25.3105 33.4163 27.9969 32.6922V29.9124C27.9969 27.7165 33.65 25.9412 40.6229 25.9412C47.6075 25.9412 53.2606 27.7165 53.2606 29.9124V34.0354C53.2606 35.2384 51.567 36.313 48.8806 37.0371V38.2752C51.567 38.9994 53.2606 40.0739 53.2606 41.277V45.4117ZM30.2511 32.2016V33.685V33.9186C30.2511 35.1917 34.8997 36.2312 40.6229 36.2312C46.3578 36.2312 51.0064 35.1917 51.0064 33.9186V32.1666C48.7288 33.2061 44.9211 33.8719 40.6229 33.8719C36.3247 33.8719 32.5287 33.2061 30.2511 32.1666V32.2016ZM27.9969 34.1755C26.6653 34.561 25.8711 35.0515 25.8711 35.5771C25.8711 36.8503 30.5197 37.8898 36.2546 37.8898C36.6517 37.8898 37.0488 37.8898 37.446 37.8781C32.1432 37.4459 28.1954 35.9626 27.9969 34.1755ZM40.6229 27.4712C46.3578 27.4712 51.0064 28.5108 51.0064 29.7839C51.0064 31.0687 46.3578 32.1082 40.6229 32.1082C34.8997 32.1082 30.2511 31.0687 30.2511 29.7839C30.2511 28.5108 34.8997 27.4712 40.6229 27.4712ZM41.2419 43.4728C46.6848 43.4027 51.0064 42.3866 51.0064 41.1602C51.0064 40.6346 50.2122 40.144 48.8806 39.7586V39.8286C48.8806 41.4638 45.7387 42.8654 41.2419 43.4728ZM25.8711 37.9599V39.7002C25.8711 40.985 30.5197 42.0245 36.2546 42.0245C41.9895 42.0245 46.6264 40.985 46.6264 39.7002V37.9599C44.3488 38.9877 40.5528 39.6651 36.2546 39.6651C31.9564 39.6651 28.1604 38.9877 25.8711 37.9599ZM30.2511 43.5429V45.2832C30.2511 46.568 34.8997 47.6075 40.6229 47.6075C46.3578 47.6075 51.0064 46.568 51.0064 45.2832V43.5429C48.7288 44.5707 44.9211 45.2482 40.6229 45.2482C36.3247 45.2482 32.5287 44.5707 30.2511 43.5429ZM30.2511 47.6659V49.4179C30.2511 50.691 34.8997 51.7305 40.6229 51.7305C46.3578 51.7305 51.0064 50.691 51.0064 49.4179V47.6659C48.7288 48.7054 44.9211 49.3712 40.6229 49.3712C36.3247 49.3712 32.5287 48.7054 30.2511 47.6659Z" fill="#1B996B" stroke="#1B996B" stroke-width="0.0762"/>
<path d="M38.7899 12.7338L0.824677 40.8195L2.34937 42.948L40.3146 14.8624L38.7899 12.7338Z" fill="#1B996B" stroke="#1B996B" stroke-width="0.0163053"/>
<path d="M10.3017 38.6956C11.8821 38.6956 13.1633 37.4144 13.1633 35.834C13.1633 34.2536 11.8821 32.9724 10.3017 32.9724C8.72132 32.9724 7.44014 34.2536 7.44014 35.834C7.44014 37.4144 8.72132 38.6956 10.3017 38.6956Z" fill="#1B996B"/>
<path d="M19.5406 31.5592C21.121 31.5592 22.4022 30.2781 22.4022 28.6977C22.4022 27.1172 21.121 25.8361 19.5406 25.8361C17.9602 25.8361 16.679 27.1172 16.679 28.6977C16.679 30.2781 17.9602 31.5592 19.5406 31.5592Z" fill="#1B996B"/>
<path fill-rule="evenodd" clip-rule="evenodd" d="M48.1916 6.79761L39.9105 19.3419L37.0372 15.7795L34.1756 12.2171L48.1916 6.79761Z" fill="#1B996B"/>
</svg>
