<svg xmlns="http://www.w3.org/2000/svg" width="60" height="60" viewBox="0 0 60 60" fill="none">
<path d="M50.9375 30.0782V23.7231L53.5464 25.6063C54.5287 26.3155 55.798 26.3152 56.7805 25.6063C57.5961 25.0175 58.083 24.0315 58.083 22.9686C58.083 21.9056 57.5961 20.9196 56.7805 20.3308L50.0339 15.4609C49.6416 15.1778 49.112 15.2932 48.8512 15.7189C48.5903 16.1445 48.6968 16.719 49.0889 17.0022L55.8355 21.8722C56.1796 22.1205 56.3769 22.5202 56.3769 22.9686C56.3769 23.4169 56.1796 23.8166 55.8355 24.065C55.427 24.3596 54.8993 24.3596 54.4912 24.065L29.8697 6.29224C29.8436 6.27342 29.8168 6.25613 29.7899 6.23922C29.7845 6.23579 29.7792 6.23184 29.7738 6.22854C29.7454 6.21111 29.7163 6.19522 29.6871 6.18009C29.683 6.17793 29.679 6.17538 29.6748 6.17322C29.6439 6.15745 29.6125 6.14321 29.5808 6.12986C29.5782 6.12884 29.5758 6.12744 29.5732 6.12643C29.5574 6.11981 29.5412 6.1146 29.5252 6.10862C29.0918 5.94725 28.6076 6.00778 28.2135 6.29224L3.59168 24.065C3.18328 24.3596 2.65559 24.3596 2.24742 24.065C1.90336 23.8166 1.70602 23.4169 1.70602 22.9686C1.70602 22.5202 1.90336 22.1205 2.24742 21.8722L29.0415 2.53129L44.6566 13.803C45.0489 14.0861 45.5784 13.9706 45.8393 13.5449C46.1003 13.1193 45.9938 12.5448 45.6016 12.2616L29.8697 0.90565C29.3666 0.542474 28.7164 0.542474 28.2135 0.90565L20.1713 6.71073V5.20704H20.4155C21.0264 5.20704 21.5234 4.66775 21.5234 4.00485V1.20219C21.5234 0.539295 21.0264 0 20.4155 0H11.4091C10.7982 0 10.3012 0.539295 10.3012 1.20219V4.00498C10.3012 4.66787 10.7982 5.20717 11.4091 5.20717H11.6532V12.8593L1.30254 20.3307C0.486914 20.9193 0 21.9055 0 22.9684C0 24.0314 0.486914 25.0175 1.30254 25.6063C1.79367 25.9608 2.35664 26.1381 2.91949 26.1381C3.48246 26.1381 4.04543 25.9608 4.53656 25.6063L7.14539 23.7231V40.1107C7.14539 40.6219 7.5273 41.0363 7.9984 41.0363C8.46949 41.0363 8.85141 40.6219 8.85141 40.1107V22.4917L29.0415 7.91789L49.2315 22.4917V29.4799C49.158 29.4597 49.0841 29.442 49.0104 29.4231C48.977 29.4144 48.9436 29.4056 48.9101 29.3973C48.8268 29.3767 48.7433 29.3569 48.6598 29.338C48.6114 29.3269 48.563 29.3164 48.5145 29.3058C48.437 29.2892 48.3596 29.2726 48.282 29.2574C48.2235 29.2458 48.1648 29.2354 48.1061 29.2246C48.0355 29.2117 47.9651 29.1981 47.8944 29.1864C47.7723 29.1661 47.6496 29.1475 47.5264 29.1306C47.4709 29.123 47.4151 29.1167 47.3595 29.1099C47.2793 29.0998 47.1991 29.09 47.1186 29.0815C47.061 29.0754 47.0032 29.0701 46.9453 29.0647C46.8649 29.0572 46.7843 29.0505 46.7036 29.0445C46.6479 29.0404 46.5922 29.0364 46.5366 29.0329C46.4486 29.0275 46.3603 29.0234 46.2718 29.0197C46.2238 29.0177 46.1757 29.0153 46.1276 29.0137C45.9988 29.0098 45.8695 29.0075 45.7399 29.0072C45.733 29.0072 45.726 29.0069 45.7191 29.0069C38.8288 29.0069 33.0626 34.3294 31.7286 41.3843C31.5381 42.3922 31.438 43.4355 31.438 44.5035C31.438 44.6337 31.4395 44.7639 31.4426 44.894C31.4759 46.3471 31.6945 47.751 32.0736 49.0792C32.0745 49.082 32.0752 49.0848 32.076 49.0874C32.0926 49.1454 32.1102 49.203 32.1274 49.2608C32.2556 49.6935 32.4003 50.1203 32.5632 50.539H28.3612V28.9892C28.3612 27.9143 27.5554 27.0399 26.5649 27.0399H14.0566C13.0661 27.0399 12.2603 27.9144 12.2603 28.9892V50.5389H8.85141V45.8845C8.85141 45.3733 8.46949 44.9589 7.9984 44.9589C7.5273 44.9589 7.14539 45.3733 7.14539 45.8845V50.5389H3.63457C2.32945 50.5389 1.2675 51.6911 1.2675 53.1074C1.2675 54.5236 2.32934 55.676 3.63457 55.676H35.833C38.4008 58.3524 41.8857 60 45.7189 60C53.5936 60.0001 60 53.0483 60 44.5035C60 37.956 56.2386 32.3442 50.9375 30.0782ZM18.4652 7.94218L13.3593 11.6277V5.20704H18.4652V7.94218ZM12.0073 1.8511H19.8173V3.35581H12.0073V1.8511ZM13.9662 28.9892C13.9662 28.935 14.0067 28.8911 14.0565 28.8911H26.5645C26.6145 28.8911 26.6549 28.9351 26.6549 28.9892V50.5389H13.9662V28.9892ZM3.63457 53.8249C3.27012 53.8249 2.97352 53.503 2.97352 53.1076C2.97352 52.712 3.27012 52.3902 3.63457 52.3902H33.4235C33.6941 52.8859 33.99 53.3648 34.3097 53.8249H3.63457ZM45.7189 58.1489C40.2163 58.1489 35.5283 54.2935 33.8272 48.9415C33.8123 48.8943 33.7976 48.8472 33.7832 48.7999C33.7646 48.7397 33.7465 48.6793 33.7288 48.6187C33.7008 48.5223 33.6736 48.4257 33.6476 48.3287C33.6424 48.3095 33.6369 48.2905 33.6318 48.2713C33.4187 47.464 33.2741 46.6345 33.2006 45.7953C33.1993 45.7811 33.1983 45.7669 33.1971 45.7525C33.1873 45.6368 33.1791 45.5209 33.172 45.405C33.1702 45.3742 33.1683 45.3434 33.1666 45.3125C33.161 45.2092 33.1567 45.106 33.1532 45.0025C33.152 44.9688 33.1505 44.9353 33.1497 44.9016C33.1461 44.769 33.1439 44.6363 33.1439 44.5035C33.1439 43.563 33.232 42.6444 33.3998 41.7569C34.5744 35.5447 39.6518 30.8581 45.7189 30.8581C45.7213 30.8581 45.7238 30.8582 45.7261 30.8582C45.8784 30.8583 46.0303 30.8624 46.182 30.8684C46.2175 30.8698 46.253 30.8711 46.2884 30.8728C46.4351 30.88 46.5814 30.8896 46.7273 30.9022C46.7632 30.9053 46.7988 30.9092 46.8345 30.9125C46.9589 30.9243 47.0831 30.9383 47.207 30.9542C47.2411 30.9586 47.2754 30.9622 47.3095 30.9669C47.445 30.9855 47.58 31.0074 47.7146 31.0308C47.768 31.0401 47.8212 31.0496 47.8743 31.0595C48.0009 31.0833 48.1274 31.1087 48.2532 31.1367C48.3124 31.1499 48.371 31.1644 48.4298 31.1785C48.5114 31.198 48.5926 31.2185 48.6738 31.2397C48.7709 31.2651 48.8675 31.2918 48.9637 31.3197C49.0399 31.3417 49.1161 31.3642 49.1919 31.3879C49.2729 31.4132 49.3536 31.4391 49.4339 31.4662C49.4721 31.479 49.5102 31.4928 49.5483 31.506C54.6152 33.2679 58.2938 38.4279 58.2938 44.5035C58.294 52.0276 52.6528 58.1489 45.7189 58.1489Z" fill="white"/>
<path d="M46.9457 43.2997V39.4418C48.2991 39.5514 48.7637 40.2528 49.3293 40.2528C50.0767 40.2528 50.3999 39.2445 50.3999 38.7403C50.3999 37.469 48.2588 37.0524 46.9457 37.0086V36.4387C46.9457 36.1537 46.6022 35.8906 46.2589 35.8906C45.875 35.8906 45.5721 36.1536 45.5721 36.4387V37.0524C43.5521 37.3375 41.6531 38.543 41.6531 41.3268C41.6531 44.1325 43.7338 44.9874 45.5721 45.7327V50.0948C43.7944 49.8756 43.1885 48.4507 42.4208 48.4507C41.7945 48.4507 41.2896 49.3714 41.2896 49.9852C41.2896 51.2127 43.1278 52.6374 45.5721 52.7031V53.3169C45.5721 53.6019 45.8751 53.865 46.2589 53.865C46.6024 53.865 46.9457 53.6019 46.9457 53.3169V52.6373C49.2081 52.2428 50.7636 50.6865 50.7636 47.9902C50.7636 45.0094 48.7436 44.0232 46.9457 43.2997ZM45.7337 42.8174C44.8045 42.423 44.1176 42.0064 44.1176 41.042C44.1176 40.2089 44.7237 39.6829 45.7337 39.5075V42.8174ZM46.7841 50.073V46.2589C47.6527 46.6754 48.2991 47.2016 48.2991 48.2755C48.2991 49.3059 47.6729 49.8757 46.7841 50.073Z" fill="white"/>
<path d="M24.0607 37.353C23.5912 37.353 23.2108 37.7658 23.2108 38.2752V40.1811C23.2108 40.6905 23.5912 41.1033 24.0607 41.1033C24.5301 41.1033 24.9105 40.6905 24.9105 40.1811V38.2752C24.9105 37.7658 24.5301 37.353 24.0607 37.353Z" fill="white"/>
</svg>
