<svg width="60" height="60" viewBox="0 0 60 60" fill="none" xmlns="http://www.w3.org/2000/svg">
<path d="M57.6872 26.4851H41.0837V24.3521C41.0837 22.4731 39.66 20.9444 37.91 20.9444C36.1601 20.9444 34.7364 22.4731 34.7364 24.3521V26.4851H18.133C16.9373 26.4851 15.9507 27.4643 15.8321 28.715C15.8243 28.7985 15.8202 28.883 15.8202 28.9686V45.191C15.8202 46.5604 16.8578 47.6745 18.133 47.6745H20.9332V54.438H8.86453V21.6449L29.0561 7.22282L49.2475 21.645V24.2642C49.2475 24.7733 49.6318 25.1859 50.1059 25.1859C50.5799 25.1859 50.9643 24.7733 50.9643 24.2642V22.8712L53.5659 24.7295C54.5503 25.4326 55.8223 25.4326 56.8068 24.7295C57.624 24.1458 58.112 23.1679 58.112 22.1138C58.112 21.0599 57.624 20.0821 56.8068 19.4985L29.8874 0.270567C29.3823 -0.090189 28.7298 -0.090189 28.2248 0.270567L12.6055 11.4271C12.2108 11.7089 12.1036 12.2811 12.3662 12.705C12.6288 13.1288 13.1618 13.2439 13.5564 12.9618L29.0561 1.89076L55.856 21.0332C56.1987 21.2781 56.3953 21.6719 56.3953 22.114C56.3953 22.556 56.1987 22.9499 55.856 23.1947C55.4493 23.4853 54.9237 23.4853 54.5169 23.1947L29.8874 5.60251C29.3823 5.24188 28.7298 5.24162 28.2248 5.60251L3.59508 23.1947C3.18844 23.485 2.66285 23.4853 2.25609 23.1946C1.91332 22.9499 1.7168 22.556 1.7168 22.114C1.7168 21.6719 1.91332 21.2781 2.25609 21.0332L9.11566 16.1336C9.51035 15.8518 9.61758 15.2796 9.35496 14.8557C9.09234 14.432 8.55949 14.3168 8.1648 14.5989L1.30523 19.4983C0.487969 20.0821 0 21.0598 0 22.114C0 23.1682 0.487969 24.1459 1.30523 24.7295C1.79754 25.0812 2.36145 25.257 2.9257 25.257C3.48973 25.2568 4.05398 25.0811 4.54605 24.7295L7.14773 22.8712V54.438H3.85793C2.42977 54.438 1.26797 55.6857 1.26797 57.219C1.26797 58.7525 2.42977 60 3.85793 60H54.2542C55.6823 60 56.8441 58.7524 56.8441 57.219C56.8441 55.6855 55.6823 54.438 54.2542 54.438H50.9644V49.8952C50.9644 49.3861 50.58 48.9735 50.106 48.9735C49.632 48.9735 49.2476 49.3861 49.2476 49.8952V54.438H41.0838V47.6745H57.6872C58.9625 47.6745 60 46.5604 60 45.191V28.9686C60 27.5992 58.9624 26.4851 57.6872 26.4851ZM36.4532 24.3521C36.4532 23.4895 37.1067 22.7878 37.91 22.7878C38.7134 22.7878 39.3669 23.4895 39.3669 24.3521V26.4851H36.4532V24.3521ZM34.7364 58.1566H3.85793C3.37652 58.1566 2.98477 57.7361 2.98477 57.219C2.98477 56.702 3.37641 56.2815 3.85793 56.2815H34.7364V58.1566ZM34.7364 54.438H22.65V47.6745H34.7364V54.438ZM39.3669 58.1566H36.4532V47.6744H39.3669V58.1566ZM54.2542 56.2815C54.7356 56.2815 55.1273 56.702 55.1273 57.219C55.1273 57.7361 54.7357 58.1566 54.2542 58.1566H41.0837V56.2815H54.2542ZM57.6872 45.8311H18.133C17.8043 45.8311 17.537 45.5441 17.537 45.191V28.9686C17.537 28.6158 17.8043 28.3286 18.133 28.3286L57.6872 28.3285C58.0159 28.3285 58.2832 28.6155 58.2832 28.9686V45.191C58.2832 45.544 58.0159 45.8311 57.6872 45.8311Z" fill="#1B996B"/>
<path d="M29.0562 11.2805C26.0743 11.2805 23.6484 13.8853 23.6484 17.0871C23.6484 20.2888 26.0743 22.8938 29.0562 22.8938C32.038 22.8938 34.4639 20.289 34.4639 17.0871C34.4639 13.8855 32.038 11.2805 29.0562 11.2805ZM28.1978 20.9409C26.8499 20.5947 25.7875 19.4528 25.4663 18.0049H28.1978V20.9409ZM28.1978 16.1615H25.468C25.7912 14.7172 26.8523 13.5789 28.1978 13.2334V16.1615ZM29.9146 13.2334C31.2601 13.5789 32.3212 14.7173 32.6443 16.1615H29.9146V13.2334ZM29.9146 20.9409V18.0049H32.646C32.3249 19.4528 31.2625 20.5946 29.9146 20.9409Z" fill="#1B996B"/>
<path d="M29.9879 40.9016L28.3583 37.6562C29.2911 37.349 29.9877 36.5209 29.9877 34.9849C29.9877 32.8614 28.6692 32.1937 27.0398 32.1937H24.5771C24.2662 32.1937 24.0547 32.4475 24.0547 32.7279V41.409C24.0547 41.7697 24.4651 41.9567 24.8632 41.9567C25.2736 41.9567 25.6716 41.7697 25.6716 41.409V37.9232H26.7165L28.4827 41.6094C28.6072 41.8765 28.8186 42.0235 29.0425 42.0235C29.5152 42.0235 30.05 41.556 30.05 41.1154C30.05 41.062 30.0376 40.9684 29.9879 40.9016ZM27.0398 36.561H25.6716V33.7163H27.0398C27.8484 33.7163 28.3707 34.0902 28.3707 35.1453C28.3707 36.2005 27.8483 36.561 27.0398 36.561Z" fill="#1B996B"/>
<path d="M36.5296 40.4341H33.0095V37.7495H34.9001C35.2484 37.7495 35.4101 37.389 35.4101 37.0817C35.4101 36.7212 35.2234 36.3872 34.9001 36.3872H33.0095V33.716H36.5296V33.7163C36.8529 33.7163 37.0396 33.3556 37.0396 32.9415C37.0396 32.581 36.8779 32.1937 36.5296 32.1937H32.1016C31.7409 32.1937 31.3926 32.3807 31.3926 32.7413V41.409C31.3926 41.7697 31.7409 41.9567 32.1016 41.9567H36.5296C36.8779 41.9567 37.0396 41.5692 37.0396 41.2087C37.0396 40.7946 36.8529 40.4341 36.5296 40.4341Z" fill="#1B996B"/>
<path d="M43.457 32.1937C43.0466 32.1937 42.6485 32.3539 42.6485 32.7279V38.0968L40.2478 33.1153C39.8623 32.3272 39.6259 32.1937 39.0414 32.1937C38.631 32.1937 38.2329 32.3674 38.2329 32.7413V41.409C38.2329 41.7697 38.6309 41.9567 39.0414 41.9567C39.4394 41.9567 39.8499 41.7697 39.8499 41.409V36.0401L42.5242 41.409C42.7357 41.823 43.0715 41.9567 43.457 41.9567C43.855 41.9567 44.2655 41.7697 44.2655 41.409V32.728C44.2655 32.354 43.8551 32.1937 43.457 32.1937Z" fill="#1B996B"/>
<path d="M51.1805 32.1937H45.9192C45.5709 32.1937 45.4092 32.5945 45.4092 32.9683C45.4092 33.3957 45.5959 33.7564 45.9192 33.7564H47.7475V41.4092C47.7475 41.7698 48.1455 41.9568 48.5561 41.9568C48.9541 41.9568 49.3646 41.7698 49.3646 41.4092V33.7564H51.1805C51.5039 33.7564 51.6904 33.3824 51.6904 32.9683C51.6904 32.5945 51.5288 32.1937 51.1805 32.1937Z" fill="#1B996B"/>
</svg>
