<svg width="60" height="60" viewBox="0 0 60 60" fill="none" xmlns="http://www.w3.org/2000/svg">
<path fill-rule="evenodd" clip-rule="evenodd" d="M0 5C0 2.23857 2.23858 0 5 0H55C57.7614 0 60 2.23858 60 5V55C60 57.7614 57.7614 60 55 60H5C2.23857 60 0 57.7614 0 55V5ZM3.19969 8.19969C3.19969 5.43827 5.43826 3.19969 8.19969 3.19969H51.8003C54.5617 3.19969 56.8003 5.43826 56.8003 8.19969V51.8003C56.8003 54.5617 54.5617 56.8003 51.8003 56.8003H8.19969C5.43827 56.8003 3.19969 54.5617 3.19969 51.8003V8.19969Z" fill="#1B996B"/>
<path fill-rule="evenodd" clip-rule="evenodd" d="M31.2144 54.0094H27.8045L23.2969 40.6151C22.643 39.1904 22.2693 37.5322 22.2693 35.7572C22.2693 30.5372 25.5157 26.2982 29.5211 26.2982C33.5266 26.2982 36.7613 30.5372 36.7613 35.7572C36.7613 37.5789 36.3759 39.2721 35.6986 40.7085L31.2144 54.0094ZM30.5488 50.4827H28.4818L25.3989 39.9845C24.9668 38.8751 24.7216 37.5672 24.7216 36.1775C24.7216 32.0904 26.8703 28.7622 29.5211 28.7622C32.172 28.7622 34.3207 32.0904 34.3207 36.1775C34.3207 37.6022 34.0521 38.9335 33.6083 40.0662L30.5488 50.4827Z" fill="#1B996B"/>
<path d="M29.5212 40.4982C30.5725 40.4982 31.4247 39.7296 31.4247 38.7816C31.4247 37.8335 30.5725 37.0649 29.5212 37.0649C28.4699 37.0649 27.6177 37.8335 27.6177 38.7816C27.6177 39.7296 28.4699 40.4982 29.5212 40.4982Z" fill="#1B996B"/>
<path d="M30.5488 41.5493C30.5488 40.3561 30.0861 39.3889 29.5153 39.3889C28.9446 39.3889 28.4819 40.3561 28.4819 41.5493V51.1834C28.4819 52.3765 28.9446 53.3438 29.5153 53.3438C30.0861 53.3438 30.5488 52.3765 30.5488 51.1834V41.5493Z" fill="#1B996B"/>
<path fill-rule="evenodd" clip-rule="evenodd" d="M35.3484 3.19971V20.8447C35.3484 23.3204 33.3281 25.3523 30.8525 25.3523H28.19C25.7143 25.3523 23.6824 23.3204 23.6824 20.8447V3.19971H26.1814V20.5995C26.1814 21.6855 27.0689 22.573 28.1549 22.573H30.8875C31.9735 22.573 32.861 21.6855 32.861 20.5995V3.19971H35.3484Z" fill="#1B996B"/>
<path d="M33.9705 8.43127H25.3056V10.2997H33.9705V8.43127Z" fill="#1B996B"/>
</svg>
