<svg width="60" height="60" viewBox="0 0 60 60" fill="none" xmlns="http://www.w3.org/2000/svg">
<path fill-rule="evenodd" clip-rule="evenodd" d="M0 5C0 2.23858 2.23858 0 5 0H55C57.7614 0 60 2.23858 60 5V55C60 57.7614 57.7614 60 55 60H5C2.23857 60 0 57.7614 0 55V5ZM3.19969 8.20031C3.19969 5.43889 5.43826 3.20031 8.19969 3.20031H51.8003C54.5617 3.20031 56.8003 5.43889 56.8003 8.20031V51.7997C56.8003 54.5611 54.5617 56.7997 51.8003 56.7997H8.19969C5.43827 56.7997 3.19969 54.5611 3.19969 51.7997V8.20031Z" fill="#1B996B"/>
<path fill-rule="evenodd" clip-rule="evenodd" d="M11.2456 19.1785H48.766C50.4593 19.1785 51.849 20.5684 51.849 22.2737V43.8933C51.849 45.5986 50.4593 46.9885 48.766 46.9885H11.2456C9.54066 46.9885 8.15102 45.5986 8.15102 43.8933V22.2737C8.15102 20.5684 9.54066 19.1785 11.2456 19.1785ZM11.3974 22.3204H48.6026V43.8466H11.3974V22.3204Z" fill="#1B996B"/>
<path fill-rule="evenodd" clip-rule="evenodd" d="M24.9786 13.0115H35.5352C37.6606 13.0115 39.4005 14.7518 39.4005 16.8775V18.4543C39.4005 20.5801 37.6606 22.3204 35.5352 22.3204H34.3441C35.2666 22.3204 36.0257 21.5612 36.0257 20.6385V17.3214C36.0257 16.387 35.2666 15.6395 34.3441 15.6395H26.1814C25.2472 15.6395 24.4881 16.387 24.4881 17.3214V20.6385C24.4881 21.5612 25.2472 22.3204 26.1814 22.3204H24.9786C22.8532 22.3204 21.1133 20.5801 21.1133 18.4543V16.8775C21.1133 14.7518 22.8532 13.0115 24.9786 13.0115Z" fill="#1B996B"/>
<path fill-rule="evenodd" clip-rule="evenodd" d="M15.6364 39.6419H40.9887C41.5375 39.6419 41.9696 40.0741 41.9696 40.623C41.9696 41.1603 41.5375 41.6041 40.9887 41.6041H14.6438C14.1066 41.6041 13.6629 41.1603 13.6629 40.623C13.6629 40.588 13.6629 40.5529 13.6629 40.5179V40.5062V27.3312C13.6629 26.7939 14.1066 26.3501 14.6555 26.3501C15.1927 26.3501 15.6364 26.7939 15.6364 27.3312V39.6419Z" fill="#1B996B"/>
</svg>
