<svg width="32" height="32" viewBox="0 0 32 32" fill="none" xmlns="http://www.w3.org/2000/svg">
<path fill-rule="evenodd" clip-rule="evenodd" d="M16.083 29H16.062C13.697 29 11.359 28.359 9.317 27.161L8.838 26.875L3.838 28.177L5.182 23.312L4.859 22.812C3.53846 20.7124 2.8379 18.2824 2.838 15.802C2.838 8.542 8.781 2.62 16.093 2.62C19.635 2.62 22.958 4 25.458 6.5C26.6913 7.71859 27.6695 9.17058 28.3357 10.7713C29.0018 12.3719 29.3426 14.0892 29.338 15.823C29.328 23.078 23.39 29 16.088 29H16.083ZM20.609 17.885C20.974 18.021 22.927 18.974 23.328 19.177L23.345 19.078C23.746 19.255 24.006 19.354 24.105 19.536C24.204 19.713 24.204 20.494 23.865 21.437C23.531 22.374 21.937 23.213 21.177 23.338C20.49 23.437 19.62 23.479 18.667 23.177C18.089 22.979 17.349 22.739 16.396 22.338C12.401 20.619 9.797 16.619 9.594 16.359C9.396 16.078 7.969 14.198 7.969 12.255C7.969 10.317 9 9.359 9.365 8.958C9.73 8.578 10.163 8.479 10.428 8.479C10.693 8.479 10.959 8.479 11.188 8.5C11.433 8.5 11.766 8.401 12.084 9.177C12.417 9.959 13.214 11.922 13.313 12.12C13.412 12.318 13.479 12.537 13.349 12.818C13.208 13.078 13.146 13.239 12.953 13.479C12.75 13.719 12.531 13.995 12.349 14.177C12.151 14.375 11.943 14.599 12.177 14.995C12.412 15.396 13.203 16.698 14.391 17.755C15.912 19.119 17.193 19.536 17.594 19.739C17.989 19.916 18.219 19.896 18.453 19.635C18.687 19.374 19.453 18.479 19.713 18.088C19.979 17.687 20.244 17.755 20.609 17.885Z" fill="#1B996B"/>
<path fill-rule="evenodd" clip-rule="evenodd" d="M16.062 29H16.083H16.088C23.39 29 29.328 23.078 29.338 15.823C29.3426 14.0892 29.0018 12.3719 28.3357 10.7713C27.6695 9.17058 26.6913 7.71859 25.458 6.5C22.958 4 19.635 2.62 16.093 2.62C8.781 2.62 2.838 8.542 2.838 15.802C2.8379 18.2824 3.53846 20.7124 4.859 22.812L5.182 23.312L3.838 28.177L8.838 26.875L9.317 27.161C11.359 28.359 13.697 29 16.062 29ZM16.062 0C20.317 0 24.317 1.661 27.359 4.599L27.339 4.65C30.349 7.645 32 11.63 32 15.864C31.995 24.614 24.849 31.729 16.068 31.729H16.063C13.4042 31.7224 10.7883 31.0588 8.448 29.797L0 32L2.26 23.786C0.864 21.375 0.135 18.651 0.135 15.859C0.14 7.115 7.286 0 16.062 0Z" fill="#1B996B"/>
</svg>
