<svg width="204" height="83" viewBox="0 0 204 83" fill="none" xmlns="http://www.w3.org/2000/svg">
<path d="M1.37744 80H0.158691L4.01172 70.9229H5.31299L9.18506 80H7.88379L6.70947 77.1436H3.70703L4.03076 76.1914H6.31592L4.62109 72.0781L1.37744 80ZM10.6829 80V70.9229H16.6052V71.875H11.8572V80H10.6829ZM23.8857 70.9229V71.875H19.125V74.9219H23.6636V75.874H19.125V79.0479H23.9809V80H17.9507V70.9229H23.8857ZM26.0183 80V70.9229H27.1926V74.8584H32.3659V70.9229H33.5403V80H32.3659V75.8105H27.1926V80H26.0183ZM42.0903 70.9229V71.875H39.2338V80H38.0595V71.875H35.2031V70.9229H42.0903ZM50.6086 79.6826C49.8257 79.9365 48.9794 80.0635 48.0695 80.0635C44.8957 80.0635 43.3088 78.4871 43.3088 75.3345C43.3088 72.3511 44.8957 70.8594 48.0695 70.8594C48.9794 70.8594 49.8257 70.9863 50.6086 71.2402V72.2559C49.8257 71.9596 49.0217 71.8115 48.1965 71.8115C45.7209 71.8115 44.4831 72.9858 44.4831 75.3345C44.4831 77.8524 45.7209 79.1113 48.1965 79.1113C49.0217 79.1113 49.8257 78.9632 50.6086 78.667V79.6826ZM58.9365 70.9229V71.875H56.08V80H54.9057V71.875H52.0493V70.9229H58.9365ZM60.5993 80V70.9229H64.4714C66.1979 70.9229 67.0612 71.6274 67.0612 73.0366C67.0612 74.0692 66.4984 74.8076 65.3727 75.252C66.5746 75.4762 67.1755 76.1639 67.1755 77.3149C67.1755 79.105 66.2297 80 64.3381 80H60.5993ZM64.2682 79.0479C65.3516 79.0479 65.8932 78.4977 65.8932 77.3975C65.8932 76.3268 65.1675 75.7915 63.716 75.7915H63.2082V75.0234C64.9432 74.7907 65.8107 74.1644 65.8107 73.1445C65.8107 72.2982 65.3283 71.875 64.3635 71.875H61.7736V79.0479H64.2682ZM70.2221 75.436C70.2221 77.8862 71.3287 79.1113 73.5419 79.1113C75.7086 79.1113 76.7919 77.8862 76.7919 75.436C76.7919 73.0197 75.7086 71.8115 73.5419 71.8115C71.3287 71.8115 70.2221 73.0197 70.2221 75.436ZM68.9843 75.4741C68.9843 72.3976 70.5035 70.8594 73.5419 70.8594C76.5338 70.8594 78.0297 72.3976 78.0297 75.4741C78.0297 78.5337 76.5338 80.0635 73.5419 80.0635C70.5035 80.0635 68.9843 78.5337 68.9843 75.4741ZM83.5707 80V70.9229H84.745V74.8584H89.9184V70.9229H91.0927V80H89.9184V75.8105H84.745V80H83.5707ZM99.4523 70.9229V71.875H94.6915V74.9219H99.2301V75.874H94.6915V79.0479H99.5475V80H93.5172V70.9229H99.4523ZM103.667 79.0479H108.466V71.875H105.482C105.482 75.8486 104.877 78.2396 103.667 79.0479ZM100.506 82.4121V79.0479H101.674C103.43 79.0479 104.308 76.6569 104.308 71.875V70.9229H109.64V79.0479H110.814V82.4121H109.64V80H101.674V82.4121H100.506ZM112.636 80V70.9229H116.508C118.234 70.9229 119.098 71.6274 119.098 73.0366C119.098 74.0692 118.535 74.8076 117.409 75.252C118.611 75.4762 119.212 76.1639 119.212 77.3149C119.212 79.105 118.266 80 116.375 80H112.636ZM116.305 79.0479C117.388 79.0479 117.93 78.4977 117.93 77.3975C117.93 76.3268 117.204 75.7915 115.753 75.7915H115.245V75.0234C116.98 74.7907 117.847 74.1644 117.847 73.1445C117.847 72.2982 117.365 71.875 116.4 71.875H113.81V79.0479H116.305ZM127.749 80V72.4971L122.513 80H121.338V70.9229H122.449V78.4258L127.686 70.9229H128.86V80H127.749ZM142.012 80C140.578 77.7148 139.674 76.4115 139.302 76.0898C138.929 75.764 138.578 75.6011 138.248 75.6011V74.7568C138.925 74.7568 139.609 74.1178 140.298 72.8398C140.992 71.5618 141.737 70.9229 142.533 70.9229H143.212V71.9385H142.711C142.254 71.9385 141.741 72.4399 141.174 73.4429C140.607 74.4416 140.08 75.0234 139.594 75.1885C139.911 75.2435 140.26 75.4826 140.641 75.9058C141.022 76.3247 141.953 77.6895 143.434 80H142.012ZM137.486 70.9229V80H136.312V70.9229H137.486ZM130.364 80C131.845 77.6895 132.776 76.3247 133.157 75.9058C133.538 75.4826 133.887 75.2435 134.205 75.1885C133.718 75.0234 133.191 74.4416 132.624 73.4429C132.057 72.4399 131.545 71.9385 131.088 71.9385H130.587V70.9229H131.266C132.061 70.9229 132.804 71.5618 133.494 72.8398C134.188 74.1178 134.873 74.7568 135.55 74.7568V75.6011C135.22 75.6011 134.869 75.764 134.497 76.0898C134.124 76.4115 133.221 77.7148 131.786 80H130.364ZM151.349 80V72.4971L146.113 80H144.938V70.9229H146.049V78.4258L151.286 70.9229H152.46V80H151.349ZM154.885 80V70.9229H156.377L159.709 78.4956L162.978 70.9229H164.406V80H163.359V72.5542L160.134 80H159.208L155.932 72.5542V80H154.885ZM167.745 75.436C167.745 77.8862 168.852 79.1113 171.065 79.1113C173.231 79.1113 174.315 77.8862 174.315 75.436C174.315 73.0197 173.231 71.8115 171.065 71.8115C168.852 71.8115 167.745 73.0197 167.745 75.436ZM166.507 75.4741C166.507 72.3976 168.026 70.8594 171.065 70.8594C174.057 70.8594 175.553 72.3976 175.553 75.4741C175.553 78.5337 174.057 80.0635 171.065 80.0635C168.026 80.0635 166.507 78.5337 166.507 75.4741ZM184.515 79.6826C183.732 79.9365 182.886 80.0635 181.976 80.0635C178.802 80.0635 177.215 78.4871 177.215 75.3345C177.215 72.3511 178.802 70.8594 181.976 70.8594C182.886 70.8594 183.732 70.9863 184.515 71.2402V72.2559C183.732 71.9596 182.928 71.8115 182.103 71.8115C179.628 71.8115 178.39 72.9858 178.39 75.3345C178.39 77.8524 179.628 79.1113 182.103 79.1113C182.928 79.1113 183.732 78.9632 184.515 78.667V79.6826ZM192.843 70.9229V71.875H189.987V80H188.812V71.875H185.956V70.9229H192.843ZM200.917 80V72.4971L195.68 80H194.506V70.9229H195.617V78.4258L200.854 70.9229H202.028V80H200.917Z" fill="#1B996B"/>
<path d="M65.8896 28.2598V52H61.4902V28.2598H65.8896ZM76.0664 52C73.1003 46.3665 71.2354 43.1514 70.4717 42.3545C69.7191 41.5576 68.9111 41.1592 68.0479 41.1592V37.9551C69.5973 37.9551 71.0527 36.3392 72.4141 33.1074C73.7865 29.8757 76.0111 28.2598 79.0879 28.2598H80.8643V31.7461H79.5527C78.3574 31.7461 77.2562 32.9193 76.249 35.2656C75.2529 37.6009 73.8584 38.9844 72.0654 39.416C72.9287 39.6595 73.8307 40.2406 74.7715 41.1592C75.7233 42.0778 78.0033 45.6914 81.6113 52H76.0664ZM84.5332 52V28.2598H95.6562C100.172 28.2598 102.43 30.1025 102.43 33.7881C102.43 36.4886 100.958 38.4199 98.0137 39.582C101.157 40.1686 102.729 41.9671 102.729 44.9775C102.729 49.6592 100.255 52 95.3076 52H84.5332ZM95.125 48.1816C97.0729 48.1816 98.0469 47.1855 98.0469 45.1934C98.0469 42.7253 96.5915 41.4912 93.6807 41.4912H92.3525V38.6523C96.0049 38.0436 97.8311 36.5163 97.8311 34.0703C97.8311 32.7422 97.012 32.0781 95.374 32.0781H88.9326V48.1816H95.125ZM110.216 40.0635C110.216 45.5863 112.667 48.3477 117.57 48.3477C122.352 48.3477 124.742 45.5863 124.742 40.0635C124.742 34.6292 122.352 31.9121 117.57 31.9121C112.667 31.9121 110.216 34.6292 110.216 40.0635ZM105.65 40.1631C105.65 32.1169 109.624 28.0938 117.57 28.0938C125.395 28.0938 129.308 32.1169 129.308 40.1631C129.308 48.165 125.395 52.166 117.57 52.166C109.978 52.166 106.005 48.165 105.65 40.1631ZM133.475 52V28.2598H144.1C148.947 28.2598 151.371 30.4899 151.371 34.9502C151.371 39.7868 148.056 42.7142 141.427 43.7324L140.796 39.8145C144.78 39.0951 146.772 37.5179 146.772 35.083C146.772 33.113 145.787 32.1279 143.817 32.1279H137.874V52H133.475ZM173.086 28.2598L164.901 47.5508C163.64 50.5169 161.487 52 158.443 52C157.027 52 155.721 51.6126 154.525 50.8379V47.3516C155.699 48.1263 156.988 48.5137 158.394 48.5137C159.877 48.5137 160.823 47.9271 161.232 46.7539L152.633 28.2598H157.348L163.241 42.0391L168.371 28.2598H173.086ZM176.008 52V28.2598H180.573L188.625 46.2725L196.511 28.2598H200.91V52H196.843V35.4648L190.401 52H186.649L180.075 35.4648V52H176.008Z" fill="#BB6153"/>
<path fill-rule="evenodd" clip-rule="evenodd" d="M9.83524 29.2639V50.855L13.8432 47.487V33.3011H20.4863L20.5084 41.8216L24.4942 38.4535V29.2639H9.83524Z" fill="#BB6153"/>
<path fill-rule="evenodd" clip-rule="evenodd" d="M27.9265 24.803V38.1413L31.9123 41.5093V28.8179H38.5775L38.5554 47.264L42.5633 50.632V24.803H27.9265Z" fill="#BB6153"/>
<path fill-rule="evenodd" clip-rule="evenodd" d="M18.8034 9.97027V25.1822H22.7892V12.1115L29.4544 7.58363V20.4089H33.4402V0L18.8034 9.97027Z" fill="#BB6153"/>
<path fill-rule="evenodd" clip-rule="evenodd" d="M36.7396 14.0074V17.5316H47.5014V56.4759H43.427L25.9779 41.777L8.57311 56.4759H4.49864V17.5316H15.2383V14.0074H1V60H10.6103L25.9779 47.0632L41.3897 60H51V14.0074H36.7396Z" fill="#1B996B"/>
</svg>
