<svg width="7" height="7" viewBox="0 0 7 7" fill="none" xmlns="http://www.w3.org/2000/svg">
<path d="M4.16 4.192C4.52267 4.55467 4.848 4.88533 5.136 5.184C5.43467 5.48267 5.744 5.84533 6.064 6.272L5.168 6.928C5.01867 6.71467 4.88 6.512 4.752 6.32C4.63467 6.11733 4.52267 5.92 4.416 5.728C4.30933 5.52533 4.20267 5.32267 4.096 5.12C4 4.90667 3.89333 4.688 3.776 4.464C3.65867 4.688 3.54667 4.90667 3.44 5.12C3.344 5.32267 3.24267 5.52533 3.136 5.728C3.02933 5.92 2.912 6.11733 2.784 6.32C2.66667 6.512 2.53333 6.71467 2.384 6.928L1.488 6.272C1.648 6.05867 1.80267 5.86667 1.952 5.696C2.10133 5.51467 2.25067 5.344 2.4 5.184C2.54933 5.024 2.704 4.864 2.864 4.704C3.03467 4.544 3.21067 4.37333 3.392 4.192C2.89067 4.11733 2.42667 4.04267 2 3.968C1.584 3.89333 1.12533 3.776 0.624 3.616L0.96 2.576C1.216 2.66133 1.45067 2.74667 1.664 2.832C1.87733 2.91733 2.08533 3.008 2.288 3.104C2.49067 3.2 2.69333 3.30133 2.896 3.408C3.09867 3.504 3.312 3.60533 3.536 3.712C3.49333 3.456 3.45067 3.216 3.408 2.992C3.376 2.768 3.344 2.54933 3.312 2.336C3.29067 2.112 3.26933 1.888 3.248 1.664C3.23733 1.42933 3.232 1.17867 3.232 0.912H4.32C4.32 1.17867 4.30933 1.42933 4.288 1.664C4.27733 1.888 4.256 2.112 4.224 2.336C4.20267 2.54933 4.17067 2.768 4.128 2.992C4.096 3.216 4.05867 3.456 4.016 3.712C4.24 3.60533 4.45333 3.504 4.656 3.408C4.85867 3.30133 5.06133 3.2 5.264 3.104C5.46667 3.008 5.67467 2.91733 5.888 2.832C6.10133 2.74667 6.336 2.66133 6.592 2.576L6.928 3.616C6.42667 3.776 5.96267 3.89333 5.536 3.968C5.12 4.04267 4.66133 4.11733 4.16 4.192Z" fill="#F70505"/>
</svg>
